# xmcd
# 
# Track frame offsets:
#     150
#     20495
#     42942
#     56747
#     72790
#     87837
#     102587
#     124487
#     142700
#     158917
#     175230
#     196272
#     210905
#     225547
#     243617
#     266587
#     287607
#     307447
#     336819
# 
# Disc length: 4773
# 
# Revision: 2
# Processed by: cddbd v1.5.2PL0 Copyright (c) Steve Scherf et al.
# Submitted via: fre:ac v1.0.17
# 
DISCID=1612a313
DTITLE=Julio Iglesias - JULIO IGRESIAS - MY LIFE：THE GREATEST HITS (Disc2)
DYEAR=1996
DGENRE=Vocal
TTITLE0=Un Canto A Galicia
TTITLE1=Hey
TTITLE2=Soy Un Truhan, Soy Un Senor
TTITLE3=Momentos
TTITLE4=Amor
TTITLE5=De Nina A Mujer
TTITLE6=Me Olvide De Vivir
TTITLE7=Quijote
TTITLE8=33 Anos
TTITLE9=Manuela
TTITLE10=Volver A Empezar (Begin The Beguine)
TTITLE11=Abrazame
TTITLE12=Milonga (Medley)
TTITLE13=Ni Te Tengo Ni Te Olvido
TTITLE14=La Carretera
TTITLE15=Bamboleo
TTITLE16=My Way (A Mi Manera)
TTITLE17=Agua Dulce, Agua Sala (Readymade Mix)
TTITLE18=Llegaste A Mi Vida (duet with Tomoe Shinohara)
EXTD=
EXTT0=
EXTT1=
EXTT2=
EXTT3=
EXTT4=
EXTT5=
EXTT6=
EXTT7=
EXTT8=
EXTT9=
EXTT10=
EXTT11=
EXTT12=
EXTT13=
EXTT14=
EXTT15=
EXTT16=
EXTT17=
EXTT18=
PLAYORDER=
